Patient4_TMGait_0pt7_02_left_15_EMG.mot
version=1
nRows=17
nColumns=33
inDegrees=no
endheader
time	1LAddLong	2LGlutMax	3LGlutMed	4LIliopsoas	5LSemiMemb	6LBicFemLong	7LRecFem	8LVastMed	9LVastLat	10LGasMed	11LTibAnt	12lTibPost	13LPeroneusLong	14LSol	15LExtDigLong	16LFlexDigLong	17RAddLong	18RGlutMax	19RGlutMed	20RIliopsoas	21RSemiMemb	22RBicFemLong	23RRecFem	24RVastMed	25RVastLat	26RGasMed	27RTibAnt	28RTibPost	29RPeroneusLong	30RSol	31RExtDigLong	32RFlexDigLong
17.257	-0.009003	1.0832	-0.17334	0.017548	-0.093994	0.12924	0.90775	0.06073	-0.31662	-0.16373	0.068512	0.077515	-1.7389	-0.078278	-0.57297	0.050049	-0.01709	0.1471	0.20508	0.005798	-0.061035	0.02121	0.69809	-0.12451	0.002136	-0.009155	0.27969	-0.003052	-0.41794	0.20279	0	-0.010529
17.258	-0.010376	0.94757	0.11063	0.044556	-0.096436	0.078888	1.0359	0.020447	-0.41916	-0.2211	0.052948	0.068512	-0.53314	-0.14984	-0.63141	0.048523	0.008545	0.028076	0.068207	0.001678	-0.065765	0.015106	0.70114	-0.16159	-0.026093	-0.00473	0.37445	-0.002441	-0.16342	0.23239	-0.000916	-0.011444
17.259	-0.004425	0.82886	0.27405	0.037537	-0.12787	-0.017395	1.0556	0.011597	-0.34653	-0.13184	-0.006256	0.059509	0.60547	0.036469	-0.37155	0.031128	0.018768	-0.085144	-0.13992	0.023346	-0.067749	0.008545	0.63446	-0.16937	-0.056915	-0.000458	0.13275	0	-0.021973	0.27741	-0.002594	0.000916
17.26	-0.001678	0.77927	0.17716	0.054016	-0.11658	-0.36346	1.0538	0.008545	-0.19318	-0.072479	0.027771	0.033722	0.51148	0.005188	-0.23804	0.03891	0.050812	-0.23025	-0.25833	0.058136	-0.046082	0.026245	0.61706	-0.16388	-0.044556	0.003204	-0.47318	0.001831	0.001984	0.12039	-0.003967	-0.003967
17.261	0.013123	0.78995	0.005646	-0.015564	-0.079803	-0.47775	1.0178	-0.002594	-0.049896	-0.090942	-0.04776	0.000916	-0.19379	-0.038452	-0.12726	0.031586	0.078735	-0.29053	-0.26016	0.065765	-0.055695	0.018463	0.62454	-0.15106	-0.039825	0.001831	-0.50568	-0.000305	-0.012665	-0.025024	-0.009155	0.000916
17.262	0.016174	0.8017	0.041656	-0.014648	-0.079498	-0.22034	1.1299	-0.014343	0.14069	-0.076141	-0.076141	-0.035858	0.22385	-0.079803	0.080414	0.028076	0.11704	-0.3569	-0.058136	-0.044403	-0.051575	0.030212	0.63492	-0.10208	-0.065613	0.003967	-0.25528	-0.000458	-0.000305	-0.16968	-0.002594	-0.001831
17.263	0.019379	0.75394	-0.062866	-0.009613	-0.13229	0.033875	1.1563	-0.023804	0.31311	0.03952	0.002747	-0.055847	0.2005	-0.075684	0.24597	0.028381	0.16602	-0.3923	0.00885	-0.11414	-0.063171	0.03418	0.68649	-0.14267	-0.067902	0.001984	-0.1181	0.002441	0.11658	-0.25406	-0.00351	0.004578
17.264	0.023346	0.69809	-0.077667	0.003815	-0.16907	0.036011	1.0437	-0.016327	0.21545	0.17914	0.034332	-0.064087	-0.05188	-0.080414	0.25085	0.026398	0.19852	-0.49011	-0.21194	0.007019	-0.099182	0.022888	0.79727	-0.21118	-0.0737	0.007629	-0.20325	0.001831	0.10544	-0.2272	-0.00473	0.002747
17.265	0.034332	0.53726	-0.14023	0.000305	-0.177	-0.024872	0.86136	-0.012817	0.12817	0.13657	0.012054	-0.07843	-0.10178	-0.049286	0.20981	0.018005	0.19348	-0.56412	-0.32394	0.16113	-0.095062	0.004578	0.80032	-0.3305	-0.094452	0.00412	0.004578	0.001068	-0.086517	-0.16388	-0.00824	-0.000763
17.266	0.03952	0.3154	-0.20309	0.006104	-0.093079	-0.20096	0.73547	-0.018158	0.066833	0.091248	0.004425	-0.084686	-0.13001	-0.073242	0.21896	0.015259	0.15808	-0.63828	-0.37659	0.27924	-0.10422	-0.02533	0.74448	-0.44769	-0.10986	0	0.32013	-0.000916	-0.17548	-0.12238	-0.005341	-0.00473
17.267	0.045471	0.13931	-0.3096	-0.017395	-0.10773	-0.072784	0.5835	-0.010223	0.027161	0.032959	0.031281	-0.082092	-0.092316	-0.1947	0.12375	0.013885	0.093689	-0.69061	-0.26306	0.23651	-0.11261	-0.003052	0.71259	-0.46707	-0.13306	-0.00412	0.30502	-0.00351	-0.18662	-0.17777	-0.004883	-0.007629
17.268	0.049744	0.070648	-0.078888	-0.000458	-0.088043	0.13229	0.466	-0.004578	-0.003052	0.36011	0.032501	-0.088654	-0.057068	-0.4895	0.055084	0.10864	0.014038	-0.73212	-0.28931	0.18738	-0.094757	0.005188	0.66467	-0.51804	-0.099945	0.003815	0.30579	0.001068	-0.18921	-0.21881	-0.004578	-0.009155
17.269	0.050201	0.006104	-0.1178	0.01297	-0.00473	0.43564	0.34378	0.032501	0.026093	0.33142	0.024872	-0.081024	-0.005341	-0.53726	-0.021057	-0.12833	0.024719	-0.72678	-0.31448	0.11841	-0.083313	-0.021057	0.62256	-0.52155	-0.10407	0.005035	0.13046	-0.002136	-0.14252	-0.24918	-0.005798	-0.011902
17.27	0.036163	-0.067902	-0.036163	0.014648	-0.034332	0.59708	0.18555	0.055542	0.095825	0.21744	0.007324	-0.081482	0.038605	-0.32745	0.004883	0.037689	0.000153	-0.70664	-0.22385	0.23102	-0.083466	-0.074615	0.6218	-0.43869	-0.099945	0.005798	-0.044403	-0.002136	-0.009308	-0.27725	-0.006104	-0.011292
17.271	0.023499	-0.18448	-0.003357	0.001678	-0.059814	0.59036	-0.000916	0.048828	0.19531	0.21973	-0.006256	-0.065765	0.021515	-0.12787	0.05127	0.20081	0.012665	-0.68207	-0.41763	0.34271	-0.1059	-0.099182	0.67535	-0.40146	-0.090027	0.010529	-0.22644	-0.004883	0.18433	-0.26245	-0.006409	-0.005035
17.272	0.030518	-0.30731	0.059204	0.005493	-0.082397	0.38132	-0.34317	0.03418	0.23911	0.25131	-0.026245	-0.046844	0.085907	-0.15808	0.048523	-0.056915	0.034943	-0.73669	-0.42404	0.30212	-0.14267	-0.067139	0.68588	-0.41428	-0.068054	0.005951	-0.16739	-0.007477	0.15686	-0.233	-0.006409	-0.006409
17.273	0.027618	-0.34851	0.055542	0.013275	-0.094299	0.10239	-0.57266	0.028381	0.22537	0.29419	-0.018463	-0.043182	0.072937	-0.24262	0.010681	-0.13443	-0.022278	-0.73807	-0.38025	0.22522	-0.17303	-0.01709	0.6221	-0.2919	-0.044403	0	-0.32547	-0.002747	-0.0354	-0.11108	-0.006409	-0.006256
